<svg width="310" height="109" viewBox="0 0 310 109" fill="none" xmlns="http://www.w3.org/2000/svg">
<path d="M104.652 56.2463C104.652 85.145 81.2246 108.572 52.3259 108.572C28.0828 108.572 7.69046 92.0854 1.74906 69.7124H21.405C23.1952 73.8173 25.7788 77.4967 28.9622 80.5568C30.2103 78.4666 30.8442 75.9864 30.6052 73.3876C29.1103 72.9085 28.0281 71.5072 28.0281 69.8532C28.0281 67.8038 29.6895 66.1424 31.7389 66.1424C33.7884 66.1424 35.4498 67.8038 35.4498 69.8532C35.4498 71.4277 34.4691 72.7732 33.0853 73.3122C33.3536 76.5677 32.4868 79.6632 30.8369 82.2299C34.7642 85.4815 39.441 87.8598 44.5695 89.0672C48.2598 86.3345 50.7351 81.9959 50.8787 76.9852L50.985 73.2748C49.649 72.7133 48.7109 71.3924 48.7109 69.8523C48.7109 67.8029 50.3722 66.1415 52.4217 66.1415C54.4711 66.1415 56.1325 67.8029 56.1325 69.8523C56.1325 71.5429 55.002 72.9694 53.4558 73.4171L53.3515 77.0561C53.208 82.066 51.0527 86.4961 47.7171 89.6513C49.2239 89.8572 50.7625 89.9636 52.3259 89.9636C56.1895 89.9636 59.9013 89.3138 63.3581 88.1174C67.9073 84.6851 70.6421 79.2296 70.5527 73.412C69.017 72.9576 67.8965 71.5362 67.8965 69.8532C67.8965 67.8038 69.5579 66.1424 71.6074 66.1424C73.6568 66.1424 75.3182 67.8038 75.3182 69.8532C75.3182 71.4006 74.3711 72.7267 73.025 73.2836C73.1118 77.6532 71.7964 81.8471 69.4093 85.3217C77.6241 80.4846 83.6089 72.2655 85.4495 62.5786H63.2205V74.0329C64.6433 74.5521 65.6591 75.9174 65.6591 77.5199C65.6591 79.5693 63.9977 81.2307 61.9483 81.2307C59.8988 81.2307 58.2374 79.5693 58.2374 77.5199C58.2374 75.891 59.2869 74.5072 60.7466 74.0079V62.5786H43.8231V73.1222C45.2459 73.6414 46.2616 75.0067 46.2616 76.6092C46.2616 78.6586 44.6002 80.32 42.5508 80.32C40.5014 80.32 38.84 78.6586 38.84 76.6092C38.84 74.9803 39.8895 73.5965 41.3492 73.0972L41.3492 62.5786H19.2022L19.2033 62.5844H0.379962C0.129102 60.5067 0 58.3916 0 56.2463C0 27.3475 23.4271 3.92041 52.3259 3.92041C77.2258 3.92041 98.0636 21.3127 103.354 44.6117H83.9821C82.1348 39.5872 79.1255 35.1242 75.28 31.5485C73.3828 33.8708 72.3307 36.8955 72.6204 40.1052C74.1135 40.5855 75.1939 41.9858 75.1939 43.6385C75.1939 45.6879 73.5325 47.3493 71.4831 47.3493C69.4337 47.3493 67.7723 45.6879 67.7723 43.6385C67.7723 42.0626 68.7546 40.7162 70.1403 40.1781C69.8294 36.3289 71.1154 32.7078 73.4073 29.9306C70.0193 27.2129 66.0952 25.1361 61.819 23.8837C56.2719 27.0917 52.649 33.2203 52.9803 40.0367C54.5992 40.4359 55.7997 41.8977 55.7997 43.6398C55.7997 45.6892 54.1383 47.3506 52.0889 47.3506C50.0395 47.3506 48.3781 45.6892 48.3781 43.6398C48.3781 42.1529 49.2526 40.8703 50.5153 40.2782C50.1345 33.3344 53.3556 27.0044 58.5325 23.099C56.5207 22.7246 54.4462 22.5289 52.3259 22.5289C48.5019 22.5289 44.8267 23.1655 41.4003 24.3384C35.9388 27.6359 32.571 33.6371 32.67 40.0828C34.2056 40.5373 35.3259 41.9586 35.3259 43.6415C35.3259 45.6909 33.6645 47.3523 31.6151 47.3523C29.5657 47.3523 27.9043 45.6909 27.9043 43.6415C27.9043 42.0941 28.8515 40.7679 30.1977 40.211C30.1092 35.7549 31.4789 31.4815 33.9565 27.9674C25.9097 33.2051 20.2375 41.7843 18.9074 51.7374H41.2784L41.2784 39.7384C39.8558 39.219 38.8402 37.8539 38.8402 36.2516C38.8402 34.2022 40.5016 32.5408 42.5511 32.5408C44.6005 32.5408 46.2619 34.2022 46.2619 36.2516C46.2619 37.8806 45.2122 39.2645 43.7522 39.7637L43.7523 51.7374H60.6756V39.1535C59.2528 38.6343 58.237 37.269 58.237 35.6665C58.237 33.6171 59.8984 31.9557 61.9479 31.9557C63.9973 31.9557 65.6587 33.6171 65.6587 35.6665C65.6587 37.2954 64.6092 38.6792 63.1495 39.1785V51.7374H66.3398V51.7397H104.46C104.587 53.225 104.652 54.7281 104.652 56.2463Z" fill="white"/>
<circle cx="71.4124" cy="43.7242" r="1.77376" fill="#000C7A"/>
<circle cx="1.99548" cy="1.99548" r="1.99548" transform="matrix(1 0 0 -1 69.6523 71.7971)" fill="#000C7A"/>
<circle cx="61.9857" cy="35.653" r="1.99548" fill="#000C7A"/>
<circle cx="1.99548" cy="1.99548" r="1.99548" transform="matrix(1 0 0 -1 59.9141 79.6824)" fill="#000C7A"/>
<circle cx="52.0326" cy="43.6583" r="1.99548" fill="#000C7A"/>
<circle cx="1.99548" cy="1.99548" r="1.99548" transform="matrix(1 0 0 -1 50.4551 71.7971)" fill="#000C7A"/>
<circle cx="31.64" cy="43.6593" r="1.99548" fill="#000C7A"/>
<circle cx="1.99548" cy="1.99548" r="1.99548" transform="matrix(1 0 0 -1 29.7363 71.7971)" fill="#000C7A"/>
<circle cx="42.597" cy="36.2252" r="1.99548" fill="#000C7A"/>
<circle cx="1.99548" cy="1.99548" r="1.99548" transform="matrix(1 0 0 -1 40.582 78.6606)" fill="#000C7A"/>
<path d="M27.6891 31.8931H72.2823C85.474 31.8931 96.1727 42.6866 96.1727 55.9934C96.1727 69.3002 85.476 80.0937 72.2843 80.0937H27.6891C14.4974 80.0937 3.80078 69.3002 3.80078 55.9934C3.80078 42.6846 14.4994 31.8931 27.6911 31.8931H27.6891Z" fill="#002930"/>
<path d="M53.7737 0C83.4719 0 107.545 24.289 107.545 54.2488C107.545 84.2106 83.4699 108.5 53.7737 108.5C24.0754 108.5 0 84.2106 0 54.2488C0 24.287 24.0754 0 53.7737 0ZM27.3266 34.2194C15.3804 34.2194 5.6985 43.9892 5.6985 56.0414C5.6985 68.0935 15.3824 77.8633 27.3266 77.8633H72.2819C84.228 77.8633 93.9099 68.0935 93.9099 56.0414C93.9099 43.9892 84.226 34.2194 72.2819 34.2194H27.3266ZM20.9038 48.8029C21.6897 47.7189 23.2974 47.3194 24.4932 47.9156L38.2639 54.7747C39.0797 55.1802 39.4916 55.945 39.4219 56.7339C39.4956 57.5248 39.0837 58.2936 38.2659 58.7011L24.4952 65.5603C23.2994 66.1544 21.6937 65.759 20.9058 64.675C20.1199 63.5911 20.4482 62.2281 21.644 61.6339L31.4711 56.7399L21.642 51.846C20.4482 51.2518 20.1179 49.8908 20.9058 48.8069L20.9038 48.8029ZM77.2322 54.303C78.5633 54.303 79.6438 55.393 79.6457 56.7379C79.6457 58.0808 78.5653 59.1729 77.2322 59.1729H61.5315C60.2004 59.1729 59.12 58.0829 59.12 56.7379C59.12 55.395 60.2004 54.303 61.5315 54.303H77.2322Z" fill="#00E0EF"/>
<path d="M146.363 26.4386C148.182 26.4386 149.568 26.0231 150.521 25.194C151.518 24.3208 152.016 23.008 152.016 21.2616C152.016 19.6015 151.496 18.3349 150.458 17.4597C149.461 16.5423 147.989 16.0827 146.041 16.0827C145.346 16.0827 144.761 16.1047 144.286 16.1489C143.854 16.1489 143.398 16.1931 142.921 16.2794V26.4386H146.365H146.363ZM142.984 47.4797C142.507 47.6122 141.751 47.7427 140.71 47.8732C139.713 48.0036 138.717 48.0699 137.722 48.0699C136.727 48.0699 135.837 47.9836 135.057 47.8089C134.321 47.6764 133.693 47.4155 133.173 47.022C132.654 46.6286 132.264 46.0826 132.003 45.382C131.743 44.6835 131.613 43.7641 131.613 42.6299V11.7568C131.613 10.8394 131.852 10.1389 132.328 9.65912C132.847 9.1352 133.539 8.71967 134.407 8.41455C135.879 7.89063 137.547 7.51927 139.411 7.29846C141.315 7.03751 143.223 6.90503 145.127 6.90503C151.104 6.90503 155.677 8.19374 158.838 10.7712C162 13.3506 163.582 16.8454 163.582 21.2596C163.582 23.4015 163.234 25.3466 162.541 27.093C161.893 28.7972 160.894 30.2827 159.553 31.5493C158.253 32.7738 156.586 33.7353 154.551 34.4339C152.559 35.0883 150.241 35.4175 147.599 35.4175H142.986V47.4777L142.984 47.4797ZM180.671 39.2215C181.149 39.3078 181.734 39.3961 182.426 39.4844C183.119 39.5286 183.769 39.5487 184.374 39.5487C185.847 39.5487 187.192 39.3299 188.405 38.8943C189.661 38.4567 190.721 37.7802 191.589 36.8608C192.498 35.9434 193.193 34.7651 193.668 33.3218C194.187 31.8364 194.448 30.0659 194.448 28.0124C194.448 24.08 193.539 21.1292 191.718 19.1619C189.9 17.1526 187.474 16.1469 184.442 16.1469C183.835 16.1469 183.208 16.169 182.558 16.2131C181.951 16.2573 181.322 16.3215 180.673 16.4099V39.2215H180.671ZM184.311 48.7925C183.574 48.7925 182.731 48.7704 181.778 48.7263C180.823 48.6821 179.828 48.5958 178.789 48.4653C177.792 48.3349 176.774 48.1602 175.735 47.9414C174.738 47.7668 173.807 47.5058 172.939 47.1545C170.558 46.2372 169.366 44.6413 169.366 42.369V11.7568C169.366 10.8394 169.605 10.1389 170.08 9.65912C170.599 9.1352 171.294 8.71967 172.161 8.41455C174.022 7.80231 175.994 7.40887 178.075 7.23423C180.154 7.01542 182.016 6.90703 183.66 6.90703C187.04 6.90703 190.093 7.32255 192.822 8.15159C195.594 8.98063 197.956 10.2714 199.904 12.0178C201.897 13.722 203.434 15.8859 204.518 18.5075C205.6 21.1292 206.143 24.2325 206.143 27.8157C206.143 31.3105 205.622 34.3697 204.584 36.9933C203.543 39.5707 202.049 41.7567 200.101 43.5473C198.195 45.2957 195.899 46.6065 193.214 47.4797C190.528 48.3529 187.562 48.7925 184.312 48.7925H184.311ZM227.388 26.4406C229.208 26.4406 230.593 26.0251 231.546 25.1961C232.541 24.3229 233.038 23.01 233.038 21.2636C233.038 19.6036 232.519 18.3369 231.48 17.4617C230.483 16.5443 229.011 16.0847 227.063 16.0847C226.371 16.0847 225.784 16.1068 225.308 16.1509C224.875 16.1509 224.419 16.1951 223.943 16.2814V26.4406H227.388ZM224.009 47.4817C223.531 47.6142 222.773 47.7447 221.733 47.8752C220.738 48.0056 219.741 48.0719 218.744 48.0719C217.747 48.0719 216.862 47.9856 216.08 47.8109C215.344 47.6784 214.715 47.4175 214.196 47.024C213.676 46.6306 213.287 46.0846 213.028 45.384C212.767 44.6855 212.638 43.7661 212.638 42.632V11.7588C212.638 10.8415 212.877 10.1409 213.352 9.66113C213.871 9.13721 214.564 8.72168 215.431 8.41656C216.904 7.89264 218.571 7.52128 220.435 7.30047C222.34 7.03952 224.248 6.90703 226.152 6.90703C232.131 6.90703 236.701 8.19575 239.863 10.7732C243.025 13.3526 244.606 16.8475 244.606 21.2616C244.606 23.4035 244.258 25.3486 243.566 27.095C242.915 28.7993 241.918 30.2847 240.575 31.5513C239.278 32.7758 237.609 33.7374 235.573 34.4359C233.579 35.0903 231.263 35.4195 228.621 35.4195H224.009V47.4797V47.4817Z" fill="white"/>
<path d="M136.957 61.5495C137.435 61.4612 138.191 61.3528 139.232 61.2223C140.272 61.0477 141.267 60.9593 142.22 60.9593C143.215 60.9593 144.082 61.0477 144.819 61.2223C145.597 61.3528 146.247 61.6157 146.767 62.0092C147.288 62.4026 147.676 62.9486 147.937 63.6472C148.197 64.3457 148.327 65.2651 148.327 66.4013V90.6542C148.327 94.5424 147.222 97.4711 145.014 99.4384C142.805 101.361 139.556 102.323 135.268 102.323C133.016 102.323 131.197 101.974 129.81 101.275C128.815 100.795 128.079 100.139 127.602 99.3079C127.168 98.4768 126.953 97.5374 126.953 96.4896C126.953 95.6164 127.061 94.8515 127.277 94.1951C127.538 93.5387 127.841 93.0148 128.187 92.6214C129.008 92.796 129.703 92.9265 130.266 93.0148C130.873 93.059 131.521 93.0811 132.216 93.0811C133.905 93.0811 135.119 92.6655 135.855 91.8365C136.591 90.9633 136.959 89.6946 136.959 88.0346V61.5515L136.957 61.5495ZM155.742 69.874C156.176 69.7435 156.846 69.611 157.758 69.4806C158.711 69.3501 159.686 69.2838 160.681 69.2838C161.636 69.2838 162.479 69.3501 163.215 69.4806C163.993 69.611 164.644 69.874 165.163 70.2674C165.685 70.6609 166.073 71.2089 166.333 71.9075C166.636 72.5639 166.789 73.4371 166.789 74.5291V88.6227C166.789 90.4153 167.221 91.704 168.088 92.4889C168.956 93.2316 170.211 93.603 171.857 93.603C172.854 93.603 173.653 93.5146 174.26 93.342C174.911 93.1674 175.408 92.9927 175.755 92.8181V69.876C176.186 69.7455 176.859 69.613 177.77 69.4826C178.723 69.3521 179.698 69.2858 180.693 69.2858C181.646 69.2858 182.49 69.3521 183.226 69.4826C184.008 69.613 184.656 69.876 185.178 70.2695C185.697 70.6629 186.087 71.2109 186.346 71.9095C186.65 72.5659 186.801 73.4391 186.801 74.5311V94.4581C186.801 96.6441 185.892 98.2821 184.073 99.3741C182.557 100.336 180.739 101.056 178.616 101.538C176.536 102.062 174.262 102.325 171.793 102.325C169.453 102.325 167.288 102.064 165.297 101.538C163.347 101.014 161.657 100.205 160.229 99.1132C158.8 98.0212 157.694 96.622 156.916 94.9178C156.136 93.1714 155.746 91.0717 155.746 88.6247V69.878L155.742 69.874ZM213.571 81.0831C213.571 79.7281 213.181 78.7445 212.401 78.1343C211.665 77.4779 210.646 77.1507 209.347 77.1507C208.481 77.1507 207.614 77.2591 206.748 77.4779C205.926 77.6967 205.212 78.0239 204.603 78.4615V101.207C204.171 101.337 203.479 101.47 202.524 101.6C201.617 101.731 200.662 101.797 199.665 101.797C198.712 101.797 197.846 101.731 197.066 101.6C196.33 101.47 195.703 101.207 195.182 100.813C194.663 100.42 194.249 99.896 193.948 99.2396C193.688 98.5411 193.558 97.6458 193.558 96.5518V76.8877C193.558 75.7074 193.797 74.7459 194.273 74.0031C194.792 73.2604 195.484 72.5839 196.352 71.9717C197.824 70.9238 199.665 70.0707 201.875 69.4163C204.128 68.7599 206.617 68.4327 209.347 68.4327C214.241 68.4327 218.01 69.5247 220.65 71.7107C223.294 73.8526 224.616 76.8456 224.616 80.6916V101.209C224.184 101.339 223.487 101.472 222.536 101.602C221.625 101.733 220.674 101.799 219.677 101.799C218.724 101.799 217.857 101.733 217.079 101.602C216.342 101.472 215.714 101.209 215.196 100.815C214.677 100.422 214.263 99.898 213.963 99.2416C213.702 98.5431 213.573 97.6478 213.573 96.5538V81.0831H213.571ZM231.178 60.5659C231.178 58.9058 231.719 57.5067 232.803 56.3705C233.929 55.2343 235.402 54.6663 237.22 54.6663C239.039 54.6663 240.491 55.2343 241.574 56.3705C242.702 57.5067 243.263 58.9058 243.263 60.5659C243.263 62.226 242.702 63.6251 241.574 64.7613C240.491 65.8974 239.039 66.4655 237.22 66.4655C235.402 66.4655 233.929 65.8974 232.803 64.7613C231.721 63.6231 231.178 62.226 231.178 60.5659ZM242.744 101.207C242.266 101.293 241.554 101.404 240.599 101.534C239.69 101.709 238.758 101.797 237.805 101.797C236.852 101.797 235.987 101.731 235.207 101.6C234.471 101.47 233.842 101.207 233.323 100.813C232.803 100.42 232.389 99.896 232.089 99.2396C231.828 98.5411 231.699 97.6458 231.699 96.5518V69.872C232.175 69.7837 232.869 69.6753 233.778 69.5448C234.731 69.3701 235.684 69.2818 236.637 69.2818C237.59 69.2818 238.434 69.3481 239.17 69.4786C239.95 69.609 240.601 69.872 241.12 70.2654C241.64 70.6589 242.03 71.2069 242.288 71.9054C242.593 72.5618 242.744 73.435 242.744 74.5271V101.207ZM282.456 85.3447C282.456 88.0546 282.044 90.4795 281.223 92.6194C280.401 94.717 279.229 96.4875 277.715 97.9288C276.242 99.3701 274.466 100.464 272.386 101.207C270.307 101.95 267.991 102.321 265.434 102.321C262.88 102.321 260.562 101.927 258.482 101.143C256.403 100.356 254.604 99.2416 253.088 97.8003C251.616 96.3149 250.468 94.5223 249.644 92.4247C248.822 90.327 248.408 87.9683 248.408 85.3467C248.408 82.7673 248.82 80.4307 249.644 78.333C250.468 76.2353 251.616 74.4648 253.088 73.0235C254.604 71.5381 256.403 70.4019 258.482 69.6151C260.562 68.8282 262.878 68.4347 265.434 68.4347C267.991 68.4347 270.307 68.8503 272.386 69.6793C274.466 70.4662 276.242 71.6023 277.715 73.0878C279.229 74.5291 280.401 76.2996 281.223 78.3972C282.044 80.4949 282.456 82.8094 282.456 85.3447ZM259.716 85.3447C259.716 88.0105 260.213 90.064 261.208 91.5053C262.249 92.9024 263.677 93.603 265.498 93.603C267.317 93.603 268.703 92.8823 269.655 91.439C270.651 89.9978 271.149 87.9643 271.149 85.3427C271.149 82.7191 270.651 80.7097 269.655 79.3126C268.66 77.8693 267.249 77.1487 265.432 77.1487C263.614 77.1487 262.205 77.8693 261.208 79.3126C260.213 80.7097 259.716 82.7211 259.716 85.3427V85.3447ZM298.891 101.207C298.457 101.337 297.765 101.47 296.812 101.6C295.903 101.731 294.95 101.797 293.953 101.797C293 101.797 292.134 101.731 291.354 101.6C290.618 101.47 289.989 101.207 289.468 100.813C288.949 100.42 288.537 99.896 288.234 99.2396C287.974 98.5411 287.844 97.6458 287.844 96.5518V76.8877C287.844 75.882 288.017 75.0309 288.364 74.3303C288.754 73.5876 289.297 72.9312 289.989 72.3631C290.682 71.795 291.527 71.2932 292.522 70.8556C293.563 70.3758 294.667 69.9603 295.837 69.611C297.005 69.2618 298.219 68.9988 299.474 68.8242C300.73 68.6054 301.987 68.497 303.243 68.497C305.322 68.497 306.967 68.9125 308.179 69.7415C309.393 70.5284 310 71.8392 310 73.6739C310 74.2862 309.912 74.8964 309.739 75.5087C309.566 76.0767 309.349 76.6007 309.09 77.0804C308.179 77.0804 307.25 77.1246 306.297 77.2129C305.344 77.2992 304.413 77.4317 303.503 77.6063C302.594 77.781 301.728 77.9777 300.905 78.1965C300.127 78.3711 299.454 78.5899 298.891 78.8509V101.203V101.207Z" fill="white"/>
</svg>
